<svg xmlns="http://www.w3.org/2000/svg" width="110" height="39.315" viewBox="0 0 110 39.315">
  <path id="Path_1" data-name="Path 1" d="M33.923,33.125a9.521,9.521,0,0,1-2.6,5.588A12.03,12.03,0,0,1,26.08,41.7a24.4,24.4,0,0,1-6.961.931H4.463L10.345,8.322H23.531a18.528,18.528,0,0,1,4.51.539,10.655,10.655,0,0,1,3.774,1.618,6.578,6.578,0,0,1,2.451,2.745,6.364,6.364,0,0,1,.49,3.922A8.2,8.2,0,0,1,32.7,21.606a11.707,11.707,0,0,1-4.069,2.843A9.913,9.913,0,0,1,32.8,27.733,7.119,7.119,0,0,1,33.923,33.125ZM21.571,15.576H18.531l-1.078,6.274H20.1a5.673,5.673,0,0,0,3.088-.833,3.64,3.64,0,0,0,1.618-2.451,2.208,2.208,0,0,0-.686-2.255A3.886,3.886,0,0,0,21.571,15.576Zm-6.52,19.8h3.578a12.951,12.951,0,0,0,2.549-.343,5.239,5.239,0,0,0,2.157-1.127,3.562,3.562,0,0,0,1.127-2.255,2.227,2.227,0,0,0-1.029-2.6,6.944,6.944,0,0,0-3.137-.735h-4.02Zm22.441-4.02A13.963,13.963,0,0,1,39.7,25.331a13.086,13.086,0,0,1,4.363-4.216A10.794,10.794,0,0,1,49.6,19.6a7.15,7.15,0,0,1,4.265,1.225,7.234,7.234,0,0,1,2.647,3.186l.686-3.922h8.431L61.708,42.635H53.375l.539-3.235a11.365,11.365,0,0,1-3.48,2.745,9.509,9.509,0,0,1-4.314.98,8.22,8.22,0,0,1-5.049-1.569,9.473,9.473,0,0,1-3.039-4.265A13.13,13.13,0,0,1,37.492,31.36Zm8.824,0a5.268,5.268,0,0,0,.588,3.48A3.23,3.23,0,0,0,49.8,36.458a4.543,4.543,0,0,0,2.4-.686,6.406,6.406,0,0,0,2.01-1.863,5.77,5.77,0,0,0,1.029-2.549,5.2,5.2,0,0,0-.588-3.48,2.926,2.926,0,0,0-2.7-1.618,4.547,4.547,0,0,0-2.549.686,6.407,6.407,0,0,0-2.01,1.863A6.273,6.273,0,0,0,46.316,31.36Zm23.349,2.745a21,21,0,0,0,4.02,2.745,6.5,6.5,0,0,0,3.284.833,2.537,2.537,0,0,0,1.373-.441,1.5,1.5,0,0,0,.588-1.078A1.551,1.551,0,0,0,77.9,34.547a19.56,19.56,0,0,0-2.941-1.225,14.625,14.625,0,0,1-2.843-1.471,6.8,6.8,0,0,1-2.01-2.3,6.242,6.242,0,0,1-.49-3.382,6.341,6.341,0,0,1,1.569-3.627,8.174,8.174,0,0,1,3.333-2.206A12.6,12.6,0,0,1,78.88,19.6a13.863,13.863,0,0,1,5.147.931,26.053,26.053,0,0,1,4.51,2.157L85.5,28.223a13.165,13.165,0,0,0-2.99-2.157,6.621,6.621,0,0,0-3.186-.882,2.5,2.5,0,0,0-1.422.392,1.29,1.29,0,0,0-.686.882,1.206,1.206,0,0,0,.539,1.225,6.5,6.5,0,0,0,1.716.784q1.127.343,2.3.833a11.929,11.929,0,0,1,3.971,2.5,5.184,5.184,0,0,1,1.422,4.461A7.321,7.321,0,0,1,84.273,41.8a10.84,10.84,0,0,1-6.422,1.912,16.888,16.888,0,0,1-6.421-1.078,33.57,33.57,0,0,1-5.49-2.843Zm36.176-5.2a5.227,5.227,0,0,0-.147-2.4q-.294-1.078-1.814-1.225a2.9,2.9,0,0,0-2.5.931,6.311,6.311,0,0,0-1.471,2.451l-2.4,13.97H89.126L95.694,4.4h8.431l-3.186,18.382a9.414,9.414,0,0,1,2.892-2.549,7.858,7.858,0,0,1,4.118-1.029,6.707,6.707,0,0,1,4.265,1.078,4.874,4.874,0,0,1,1.961,2.99,11.264,11.264,0,0,1,.147,4.363l-2.549,15H103.39Z" transform="translate(-4.463 -4.4)" fill="#223057"/>
</svg>
