<svg xmlns="http://www.w3.org/2000/svg" width="1694" height="2847.552" viewBox="0 0 1694 2847.552">
  <g id="confetti-lg" transform="translate(115 -1.689)">
    <circle id="Ellipse_2" data-name="Ellipse 2" cx="23.5" cy="23.5" r="23.5" transform="translate(418 203)" fill="#ef4b7c"/>
    <path id="Ellipse_3" data-name="Ellipse 3" d="M8.5,0A8.5,8.5,0,1,1,0,8.5,8.5,8.5,0,0,1,8.5,0Z" transform="translate(1392 387)" fill="#ec3c77"/>
    <circle id="Ellipse_4" data-name="Ellipse 4" cx="8.5" cy="8.5" r="8.5" transform="translate(-86 1301)" fill="#ec3c77"/>
    <circle id="Ellipse_5" data-name="Ellipse 5" cx="17" cy="17" r="17" transform="translate(-86 407)" fill="#00dfcc"/>
    <path id="Path_1" data-name="Path 1" d="M89.312,753.547a5,5,0,0,1,6.876-1.65l13.142,8.057a5,5,0,0,1,1.649,6.877l-14.7,23.975a5,5,0,0,1-6.876,1.649L76.262,784.4a5,5,0,0,1-1.649-6.876Z" transform="translate(-80 -19)" fill="#ef4b7c"/>
    <path id="Path_2" data-name="Path 2" d="M485.2,56.2a5,5,0,0,1,2.29-6.69L584.061,2.2a5,5,0,0,1,6.69,2.29l73.171,149.347a5,5,0,0,1-2.29,6.69l-96.571,47.314a5,5,0,0,1-6.69-2.29Z" fill="#f9d881"/>
    <path id="Path_3" data-name="Path 3" d="M162.4,1300.9a2.927,2.927,0,0,1,3.89,1.437l13.9,30.266a2.933,2.933,0,0,1-1.442,3.889l-48.067,22.07a2.933,2.933,0,0,1-3.89-1.443l-13.9-30.266a2.933,2.933,0,0,1,1.442-3.889Z" transform="translate(-53 220.007)" fill="#f9d881"/>
    <path id="Path_4" data-name="Path 4" d="M1374.1,686.1a5.012,5.012,0,0,1,6.97-1.244l30.03,20.926a5,5,0,0,1,1.24,6.96L1378.1,761.9a5,5,0,0,1-6.96,1.244l-30.04-20.925a5,5,0,0,1-1.24-6.961Z" transform="translate(-58)" fill="#ef4b7c"/>
    <circle id="Ellipse_7" data-name="Ellipse 7" cx="18" cy="18" r="18" transform="translate(-23 969)" fill="#23e1cb"/>
    <rect id="Rectangle_2" data-name="Rectangle 2" width="23" height="35" rx="5" transform="translate(1173.999 817.958) rotate(-15.426)" fill="#f9d881"/>
    <rect id="Rectangle_3" data-name="Rectangle 3" width="17.702" height="26.554" rx="5" transform="translate(109.388 1444.156) rotate(-45.486)" fill="#23e1cb"/>
    <rect id="Rectangle_4" data-name="Rectangle 4" width="26.616" height="40.924" rx="5" transform="translate(1371.275 1913.869) rotate(-69.1)" fill="#23e1cb"/>
    <rect id="Rectangle_7" data-name="Rectangle 7" width="22.752" height="34.129" rx="5" transform="translate(140.761 2191.028) rotate(-70.9)" fill="#ef4b7c"/>
    <rect id="Rectangle_8" data-name="Rectangle 8" width="19.464" height="28.695" rx="5" transform="matrix(-0.193, -0.981, 0.981, -0.193, 1430.283, 2849.241)" fill="#23e1cb"/>
    <circle id="Ellipse_11" data-name="Ellipse 11" cx="22.5" cy="22.5" r="22.5" transform="translate(68 2063)" fill="#f9d881"/>
    <circle id="Ellipse_12" data-name="Ellipse 12" cx="11.5" cy="11.5" r="11.5" transform="translate(1414 1844)" fill="#f9d881"/>
    <circle id="Ellipse_13" data-name="Ellipse 13" cx="10" cy="10" r="10" transform="translate(1414 2455)" fill="#f9d881"/>
    <circle id="Ellipse_14" data-name="Ellipse 14" cx="26" cy="26" r="26" transform="translate(1527 1495)" fill="#ec3c77"/>
    <circle id="Ellipse_15" data-name="Ellipse 15" cx="23" cy="23" r="23" transform="translate(-115 2613)" fill="#ec3c77"/>
    <path id="Path_5" data-name="Path 5" d="M1374.1,686.1a5.012,5.012,0,0,1,6.97-1.244l30.03,20.926a5,5,0,0,1,1.24,6.96L1378.1,761.9a5,5,0,0,1-6.96,1.244l-30.04-20.925a5,5,0,0,1-1.24-6.961Z" transform="matrix(0.914, -0.407, 0.407, 0.914, -48.507, 2439.303)" fill="#ef4b7c"/>
    <circle id="Ellipse_6" data-name="Ellipse 6" cx="10" cy="10" r="10" transform="translate(40 701)" fill="#f9d881"/>
    <circle id="Ellipse_11-2" data-name="Ellipse 11" cx="15" cy="15" r="15" transform="translate(82 2420)" fill="#23e1cb"/>
    <circle id="Ellipse_1" data-name="Ellipse 1" cx="8.5" cy="8.5" r="8.5" transform="translate(439 724)" fill="#f9d881"/>
    <circle id="Ellipse_1-2" data-name="Ellipse 1" cx="10" cy="10" r="10" transform="translate(335 930)" fill="#ef4b7c"/>
    <circle id="Ellipse_1-3" data-name="Ellipse 1" cx="22.5" cy="22.5" r="22.5" transform="translate(1200 1025)" fill="#23e1cb"/>
  </g>
</svg>
